<?xml version="1.0" standalone="no"?><!DOCTYPE svg PUBLIC "-//W3C//DTD SVG 1.1//EN" "http://www.w3.org/Graphics/SVG/1.1/DTD/svg11.dtd"><svg t="1638160336035" class="icon" viewBox="0 0 1168 1024" version="1.1" xmlns="http://www.w3.org/2000/svg" p-id="1128" xmlns:xlink="http://www.w3.org/1999/xlink" width="36.5" height="32"><defs><style type="text/css"></style></defs><path d="M327.111111 888.888889a35.555556 35.555556 0 0 1-4.266667-49.777778l137.955556-163.555555h380.017778a42.666667 42.666667 0 0 0 42.666666-42.666667V113.777778a42.666667 42.666667 0 0 0-42.666666-42.666667H113.777778a42.666667 42.666667 0 0 0-42.666667 42.666667v519.111111a42.666667 42.666667 0 0 0 42.666667 42.666667h108.515555a35.555556 35.555556 0 0 1 35.555556 35.555555 35.555556 35.555556 0 0 1-35.555556 35.555556H99.555556a99.555556 99.555556 0 0 1-99.555556-99.555556V99.555556a99.555556 99.555556 0 0 1 99.555556-99.555556h755.484444a99.555556 99.555556 0 0 1 99.555556 99.555556v547.555555a99.555556 99.555556 0 0 1-99.555556 99.555556h-361.244444l-116.906667 137.955555a35.413333 35.413333 0 0 1-49.777778 4.266667z" p-id="1129"></path><path d="M483.555556 376.888889m-64 0a64 64 0 1 0 128 0 64 64 0 1 0-128 0Z" p-id="1130"></path><path d="M725.333333 376.888889m-64 0a64 64 0 1 0 128 0 64 64 0 1 0-128 0Z" p-id="1131"></path><path d="M241.777778 376.888889m-64 0a64 64 0 1 0 128 0 64 64 0 1 0-128 0Z" p-id="1132"></path></svg>