<?xml version="1.0" standalone="no"?><!DOCTYPE svg PUBLIC "-//W3C//DTD SVG 1.1//EN" "http://www.w3.org/Graphics/SVG/1.1/DTD/svg11.dtd"><svg t="1638160225606" class="icon" viewBox="0 0 1185 1024" version="1.1" xmlns="http://www.w3.org/2000/svg" p-id="981" xmlns:xlink="http://www.w3.org/1999/xlink" width="37.03125" height="32"><defs><style type="text/css"></style></defs><path d="M450.702222 882.204444a102.826667 102.826667 0 0 1-41.528889-21.048888h-0.711111c-72.96-57.884444-251.448889-206.222222-331.377778-331.946667l-0.995555-1.706667C45.795556 479.857778 0 408.32 0 308.48 0 137.813333 128 0 285.44 0a276.48 276.48 0 0 1 186.168889 74.097778A273.635556 273.635556 0 0 1 657.92 0c157.44 0 285.44 138.382222 285.44 308.48 0 99.555556-43.946667 168.248889-75.946667 218.595556l-1.422222 2.133333c-95.715556 150.328889-332.942222 332.942222-335.36 334.791111a94.862222 94.862222 0 0 1-79.928889 18.204444zM285.44 66.275556c-120.746667 0-219.022222 108.657778-219.022222 241.777777 0 80.355556 36.408889 137.244444 65.564444 182.897778l0.995556 1.564445c74.524444 117.333333 246.328889 259.697778 316.728889 315.591111l4.408889 3.555555a27.022222 27.022222 0 0 0 17.777777 6.115556 27.448889 27.448889 0 0 0 17.635556-5.831111c2.844444-2.133333 232.391111-179.768889 320.711111-318.72l1.422222-2.275556c30.435556-47.644444 65.137778-102.257778 65.137778-182.328889 0-133.546667-98.275556-241.777778-219.022222-241.777778a206.791111 206.791111 0 0 0-160.426667 76.657778 33.28 33.28 0 0 1-50.773333 0 213.333333 213.333333 0 0 0-161.137778-77.226666z" p-id="982"></path></svg>