<?xml version="1.0" standalone="no"?><!DOCTYPE svg PUBLIC "-//W3C//DTD SVG 1.1//EN" "http://www.w3.org/Graphics/SVG/1.1/DTD/svg11.dtd"><svg t="1638160340233" class="icon" viewBox="0 0 1184 1024" version="1.1" xmlns="http://www.w3.org/2000/svg" p-id="1276" xmlns:xlink="http://www.w3.org/1999/xlink" width="37" height="32"><defs><style type="text/css"></style></defs><path d="M825.823168 494.08v277.333333a41.244444 41.244444 0 0 1-39.537778 42.666667H101.48539a36.977778 36.977778 0 0 1-35.555555-38.257778V145.635556a41.102222 41.102222 0 0 1 39.537778-42.666667H440.969835a34.275556 34.275556 0 0 0 32.853333-35.555556A34.275556 34.275556 0 0 0 440.969835 31.857778H92.240946a96 96 0 0 0-92.16 99.555555v654.222223a96 96 0 0 0 92.16 99.555555h707.271111a96 96 0 0 0 92.16-99.555555v-291.555556a34.417778 34.417778 0 0 0-32.995555-35.555556 34.275556 34.275556 0 0 0-32.853334 35.555556z" p-id="1277"></path><path d="M433.858724 707.413333a35.555556 35.555556 0 0 1-35.555556-35.555555v-75.52a422.826667 422.826667 0 0 1 393.528889-421.262222l-115.911111-113.777778a35.697778 35.697778 0 0 1 0-50.346667 35.697778 35.697778 0 0 1 50.346667 0l160 157.866667a45.084444 45.084444 0 0 1 6.115555 56.888889 46.933333 46.933333 0 0 1-39.964444 19.484444h-31.857778A351.004444 351.004444 0 0 0 469.414279 596.337778v75.52a35.555556 35.555556 0 0 1-35.555555 35.555555z" p-id="1278"></path></svg>